<svg xmlns="http://www.w3.org/2000/svg" viewBox="0 0 214.33 294.49"><title>Asset 3</title><g id="Layer_2" data-name="Layer 2"><g id="Layer_1-2" data-name="Layer 1"><path d="M152.13,139.33s30.25-1.07,42.56,12c5.34,5.68,1.32,15-6.46,15.35-5.26.21-12.09.29-20-.06" fill="#7bc684" stroke="#c0e2c5" stroke-linecap="round" stroke-miterlimit="10" stroke-width="10"/><path d="M59.43,226.57c3.7-46.06,43.22-58,43.22-58l31-1.22a45.94,45.94,0,0,0,43-33.84l2.06-7.55L116,71.23S5,94.37,5,203s165.48,109,165,34.3c-.47-68.88-94.15-45-72.29-10.42a3.05,3.05,0,0,0,5.29-.28c2-3.79,6.25-8.36,15.54-8.36,15.88,0,17.63,21.64-3.81,30.11-24.9,9.83-61.84-6.05-65.59-50" fill="#7bc684" stroke="#c0e2c5" stroke-linecap="round" stroke-miterlimit="10" stroke-width="10"/><path d="M119.15,84.83s-9.52-34.09-8.09-69.75A10.5,10.5,0,0,1,125,5.59c26.4,9.15,84.34,37.94,84.34,88,0,56.59-44.37,48.49-72.67,30.11" fill="#7bc684" stroke="#c0e2c5" stroke-linecap="round" stroke-miterlimit="10" stroke-width="10"/><path d="M90.57,166.13A246.77,246.77,0,0,0,155.11,172a9.18,9.18,0,0,0,7.37-14.12c-9.73-14.86-35.08-15.24-35.08-15.24" fill="#7bc684" stroke="#c0e2c5" stroke-linecap="round" stroke-miterlimit="10" stroke-width="10"/></g></g></svg>